<svg width="100%" height="100%" viewBox="0 0 720 720" version="1.1" xmlns="http://www.w3.org/2000/svg" xmlns:xlink="http://www.w3.org/1999/xlink" xml:space="preserve" xmlns:serif="http://www.serif.com/" style="fill-rule:evenodd;clip-rule:evenodd;stroke-linejoin:round;stroke-miterlimit:2;">
    <g transform="matrix(3.5479,0,0,1.57816,-933.436,-215.701)">
        <path d="M346.25,452.286C345.964,452.306 345.677,452.316 345.389,452.316L267.09,452.316L267.09,385.421C267.09,377.365 268.448,368.901 271.163,360.031C275.47,347.417 281.316,341.11 288.701,341.11L341.751,341.11C342.366,341.11 342.855,340.459 343.217,339.157C343.615,337.773 343.814,335.698 343.814,332.931C343.814,327.153 342.946,324.264 341.208,324.264L290.384,324.264C284.158,324.264 279.579,321.701 276.647,316.574C272.737,311.284 269.859,302.861 268.013,291.305C267.796,289.596 267.615,288.131 267.47,286.911C267.362,285.69 267.271,284.591 267.199,283.615C267.163,282.557 267.126,281.54 267.09,280.563L267.09,277.267L342.131,277.267C349.371,277.267 355.724,283.411 361.19,295.7C362.385,298.955 363.362,302.088 364.122,305.099C364.919,308.11 365.534,311.162 365.968,314.254C366.403,317.265 366.692,320.399 366.837,323.654C367.018,326.828 367.109,330.286 367.109,334.03C367.109,342.493 366.24,350.835 364.502,359.054C364.602,359.291 364.7,359.527 364.796,359.763C365.583,356.908 366.377,354.027 367.177,351.12C369.819,341.517 372.444,331.955 375.05,322.433C376.317,317.713 377.457,313.522 378.471,309.86C379.484,306.116 380.425,302.861 381.294,300.094C382.163,297.327 382.959,295.008 383.683,293.136C384.444,291.183 385.186,289.678 385.91,288.62C388.299,284.469 390.724,281.54 393.186,279.831C395.683,278.122 398.471,277.267 401.548,277.267C404.154,277.267 406.851,278.528 409.638,281.051C412.426,283.574 415.231,288.009 418.055,294.357C419.539,298.019 420.588,301.071 421.204,303.512L462.037,452.316L387.701,452.316L387.647,442.916C387.647,438.115 388.082,433.558 388.95,429.245C389.855,424.85 391.104,420.985 392.697,417.648C394.29,414.23 396.172,411.544 398.344,409.591C400.552,407.557 402.959,406.54 405.566,406.54L422.833,406.54L400.733,325.851L365.982,452.316C357.26,452.316 350.683,452.306 346.25,452.286ZM344.738,405.319C346.258,405.319 347.127,402.674 347.344,397.384L347.344,395.797C347.344,392.054 346.819,389.694 345.769,388.717C345.407,388.555 345.081,388.432 344.792,388.351C344.502,388.27 344.249,388.229 344.032,388.229L290.167,388.229L290.167,405.319L344.738,405.319Z" style="fill:none;stroke:black;stroke-width:1.52px;"/>
    </g>
</svg>
